/* XPM */
static char *e0147b883abc42c0f93b874c91872efdsRX0svsSwLb2gkyO[] = {
/* columns rows colors chars-per-pixel */
"70 58 60 1 ",
"  c black",
". c #040300",
"X c #060500",
"o c #000005",
"O c #010406",
"+ c #080400",
"@ c #090400",
"# c #0A0A01",
"$ c #0D0B00",
"% c #0B0C01",
"& c #0E0F01",
"* c #0B0E07",
"= c #01070B",
"- c #01080B",
"; c #070B08",
": c #070C08",
"> c #00080C",
", c #060E0D",
"< c #0B0F09",
"1 c #121200",
"2 c #131402",
"3 c #191A03",
"4 c #161A0F",
"5 c #000910",
"6 c #030D11",
"7 c #000E15",
"8 c #071011",
"9 c #031217",
"0 c #041116",
"q c #05161B",
"w c #05161C",
"e c #0F1C1B",
"r c #0F1D1D",
"t c #151B12",
"y c #201F00",
"u c #1F2004",
"i c #1C2113",
"p c #1B2217",
"a c #1D2314",
"s c #1B2218",
"d c #1C2318",
"f c #1C241A",
"g c #222100",
"h c #212105",
"j c #071D24",
"k c #071E26",
"l c #091D23",
"z c #081E25",
"x c #0A2026",
"c c #0A262E",
"v c #0D252C",
"b c #0E272E",
"n c #0E282F",
"m c #152423",
"M c #122427",
"N c #142424",
"B c #132628",
"V c #142628",
"C c #0B2830",
"Z c #0F2930",
/* pixels */
"                                                                      ",
"                                                                      ",
"#&&&&&&&&&&<809000006O O600000000000000000006= .#&&&&&&&&&&<809000006O",
"23333333333trzkzzzxzw> >wzxzllzlzzzzzzzzzzxzw5 @13333333333trzkzzzxzw>",
"3uhhuuuugyupNbcbbbbbl6 6lbbbbbbbbbbbbbbbbbbbz7 $3uhhuuuugyupNbcbbbbbl6",
"3hhhhhhhgghdNbCbbnZbz6 6zbZnbbbbbbbbbbbbbnZbz7 $3hhhhhhhgghdNbCbbnZbz6",
"3hhhhhhhgghsNbcbbbnbz6 6zbnbbbbbbbbbbbbbbbnbz7 $3hhhhhhhgghsNbcbbbnbz6",
"3uhhuuuugyupNbcbbbbbl6 6lbbbbbbbbbbbbbbbbbbbz7 $3uhhuuuugyupNbcbbbbbl6",
"3hhhhhhhgghsNbcbbbnbz6 6zbnbbbbbbbbbbbbbbbnbz7 $3hhhhhhhgghsNbcbbbnbz6",
"3hhhhhhhgghdNbCbbnZbz6 6zbZnbbbbbbbbbbbbbnZbz7 $3hhhhhhhgghdNbCbbnZbz6",
"3uhhuuuugyupNbcbbbbbl6 6lbbbbbbbbbbbbbbbbbbbz7 $3uhhuuuugyupNbcbbbbbl6",
"13333333333trlkzlzzlq> >qlzlzkkzzzzzlllllzzzw> @13333333333trlkzlzzlq>",
"X#%#####&&&*,6666666>o o-6677777790066666677>   X#%#####&&&*,6666666>o",
"                                                                      ",
"<#####%#X  o>6666666,*&*,6,#$$$$@   =6666:#$%808<#####%#X  o>6666666,*",
"t33333331X 5wlzzlzklr434rlrt33331@ >wlzkle434rzrt33333331X 5wlzzlzklr4",
"suyguhhu3$ 7zbbbbbcbmiuaMbMsuggu3$ 7zbbcbmiuaMbMsuyguhhu3$ 7zbbbbbcbmi",
"fhgghhhh3$ 7zbZnbbCbNahaVbBdhggh3$ 7zbZCbNahaVbBdhgghhhh3$ 7zbZnbbCbNa",
"shgghhhh3$ 7zbnbbbcbNahaMbMshggh3$ 7zbZcbNahaMbMshgghhhh3$ 7zbnbbbcbNa",
"suyguhhu3$ 7lbbbbbcbmiuaMbMsuggu3$ 7zbbcbmiuaMbMsuyguhhu3$ 7zbbbbbcbmi",
"shgghhhh3$ 7zbnbbbcbNahaMbMshggh3$ 7zbZcbNahaMbMshgghhhh3$ 7zbnbbbcbNa",
"fhgghhhh3$ 7zbZnbbCbNahaVbBdhggh3$ 7zbZCbNahaVbBdhgghhhh3$ 7zbZnbbCbNa",
"suyguhhu3$ 7zbbbbbcbmiuaMbMsuggu3$ 7zbbcbmiuaMbMsuyguhhu3$ 7zbbbbbcbmi",
"t33333331@ >wlzzlzklr434rlrt33331@ >wlzkle434rzrt33333331@ >wlzzlzklr4",
"<#####$$@   =6666666,*&*,6,#$$$$@   =6666:#$%808<#####$$@   =6666666,*",
"                                                                      ",
"X#%##:67990066666666>o o-6677777790066666677>   X#%##:67990066666666>o",
"13333trzkzzzlllllzzlq> >qlzzlkklzzzzlllllzzzw> @13333trzkzzzlllllzzlq>",
"3uggupNbcbbbbbbbbbbbl6 6lbbbbbbbbbbbbbbbbbbbz7 $3uggupNbcbbbbbbbbbbbl6",
"3hgghdNbCbbbbbbbbnZbz6 6zbZnbbbbbbbbbbbbbnZbz7 $3hgghdNbcbbbbbbbbnZbz6",
"3hgghsNbcbbbbbbbbbnbz6 6zbnbbbbbbbbbbbbbbbnbz7 $3hgghsNbcbbbbbbbbbnbz6",
"3uggupNbcbbbbbbbbbbbl6 6lbbbbbbbbbbbbbbbbbbbz7 $3uggupNbcbbbbbbbbbbbl6",
"3hgghsNbcbbbbbbbbbnbz6 6zbnbbbbbbbbbbbbbbbnbz7 $3hgghsNbcbbbbbbbbbnbz6",
"3hgghdNbCbbbbbbbbnZbz6 6zbZnbbbbbbbbbbbbbnZbz7 $3hgghdNbCbbbbbbbbnZbz6",
"3uggupNbcbbbbbbbbbbbl6 6lbbbbbbbbbbbbbbbbbbbz7 $3uggupNbcbbbbbbbbbbbl6",
"13333trlkzzzlllllzzlq- -qlzzlllllzzzzzkzzzzzw5 X13333trlkzzzlllllzzlq-",
"X#$$$#:6790066666666=   =66666666009777777775o  X#$$$#:6790066666666= ",
"                                                                      ",
"&#;67776=   =6666666600066666666=   @$$$$$$$$&&&$#;67776=   =666666660",
"33trzkzlq- -qlzzlllllzzzlllllzzlw> @13333333333333trzkzlq- -qlzzlllllz",
"gupNbcbbl6 6lbbbbbbbbbbbbbbbbbbbz7 $3uhhuuuuuuugyupNbcbbl6 6lbbbbbbbbb",
"ghdNbCZbz6 6zbZnbbbbbbbbbbbbbbZbz7 $3hhhhhhhhhhgghdNbCZbz6 6zbZnbbbbbb",
"ghsNbcZbz6 6zbnbbbbbbbbbbbbbbbnbz7 $3hhhhhhhhhhgghsNbcZbz6 6zbnbbbbbbb",
"gupNbcbbl6 6lbbbbbbbbbbbbbbbbbbbz7 $3uhguuuuuuugyupNbcbbl6 6lbbbbbbbbb",
"ghsNbcZbz6 6zbnbbbbbbbbbbbbbbbnbz7 $3hhhhhhhhhhgghsNbcZbz6 6zbnbbbbbbb",
"ghdNbCZbz6 6zbZnbbbbbbbbbbbbbnZbz7 $3hhhhhhhhhhgghdNbCZbz6 6zbZnbbbbbb",
"gupNbcbbl6 6lbbbbbbbbbbbbbbbbbbbz7 $3uhhuuuuuuugyupNbcbbl6 6lbbbbbbbbb",
"33trzkzzw> >qlzzlllllzlllllllzzlw> @13333333333333trzkzzw> >qlzzlllllz",
"&#;677975o  >6666666600066666666=   @$$$$$$$$&&&$#;677975o  >666666660",
"                                                                      ",
"X#$$$$$$$&&*,6666666=   =66666666009777777975o  X#$$$$$$$&&*,6666666= ",
"13333333333trlkzlzzlq- -qlzzlllllzzzzzklzzzzw5 X13333333333trlkzlzzlq-",
"3uhhuuuugyupNbcbbbbbl6 6lbbbbbbbbbbbbbbbbbbbz7 $3uhhuuuugyupNbcbbbbbl6",
"3hhhhhhhgghdNbCbbnZbz6 6zbZnbbbbbbbbbbbbbnZbz7 $3hhhhhhhgghdNbCbbnZbz6",
"3hhhhhhhgghsNbcbbbnbz6 6zbnbbbbbbbbbbbbbbbnbz7 $3hhhhhhhgghsNbcbbbnbz6",
"3uhhuuuugyupNbcbbbbbl6 6lbbbbbbbbbbbbbbbbbbbz7 $3uhhuuuugyupNbcbbbbbl6",
"3hhhhhhhgghsNbcbbbnbz6 6zbnbbbbbbbbbbbbbbbnbz7 $3hhhhhhhgghsNbcbbbnbz6",
"3hhhhhhhgghdNbCbbnZbz6 6zbZnbbbbbbbbbbbbbnZbz7 $3hhhhhhhgghdNbCbbnZbz6"
};
