/* XPM */
static char *result[] = {
/* columns rows colors chars-per-pixel */
"66 62 36 1 ",
"  c gray86",
". c gainsboro",
"X c #DDDDDD",
"o c gray87",
"O c #DFDFDF",
"+ c gray88",
"@ c #E1E1E1",
"# c #E2E2E2",
"$ c gray89",
"% c #E4E4E4",
"& c gray90",
"* c #E6E6E6",
"= c #E7E7E7",
"- c gray91",
"; c #E9E9E9",
": c gray92",
"> c #ECECEC",
", c gray93",
"< c #EEEEEE",
"1 c #EFEFEF",
"2 c gray94",
"3 c #F1F1F1",
"4 c gray95",
"5 c #F3F3F3",
"6 c #F4F4F4",
"7 c gray96",
"8 c #F6F6F6",
"9 c gray97",
"0 c #F8F8F8",
"q c #F9F9F9",
"w c gray98",
"e c #FBFBFB",
"r c gray99",
"t c #FDFDFD",
"y c #FEFEFE",
"u c white",
/* pixels */
"uuuuuuuuuuuuuuuuuuuuuuuuuuuuuuuuuuuuuuuuuuuuuuuuuuuuuuuuuuuuuuuuuu",
"uuuuuuuuuuuuuuuuuuuuuuuuuuuuuuuuuuuuuuuuuuuuuuuuuuuuuuuuuuuuuuuuuu",
"uuuuuuuuuuuuuuuuuuuuuuuuuuuuuuuuuuuuuuuuuuuuuuuuuuuuuuuuuuuuuuuuuu",
"uuuuuuuuuuuuuuuuuuuuuuuuuuuuuuuuuuuuuuuuuuuuuuuuuuuuuuuuuuuuuuuuuu",
"uuuuuuuuuuuuuuuuuuuuuuuuuuuuuuuuuuuuuuuuuuuuuuuuuuuuuuuuuuuuuuuuuu",
"uuuuuuuuuuuuuuuuuuuuuuuuuuuuuuuuuuuuuuuuuuuuuuuuuuuuuuuuuuuuuuuuuu",
"uuuuuuuuuuuuuuuuuuuuuuuuuuuuuuuuuuuuuuuuuuuuuuuuuuuuuuuuuuuuuuuuuu",
"uuuuuuuuuuuuuuuuuuuuuuuuuuuuuuuuuuuuuuuuuuuuuuuuuuuuuuuuuuuuuuuuuu",
"uuuuuuuuuuuuuuuuuuuuuuuuuuuuuuuuuuuuuuuuuuuuuuuuuuuuuuuuuuuuuuuuuu",
"uuuuuuuuuuuuuuuuuuuuuuuuuuuuuuuuuuuuuuuuuuuuuuuuuuuuuuuuuuuuuuuuuu",
"uuuuuuuuuuuuuuuuuuuuuuuuuuuuuuuuuuuuuuuuuuuuuuuuuuuuuuuuuuuuuuuuuu",
"uuuuuuuuuuuuuuuuuuuuuuuuuuuuuuuuuuuuuuuuuuuuuuuuuuuuuuuuuuuuuuuuuu",
"uuuuuuuuuu211wu0-#@=4yuuuuuuuuy3;%OO&>wuuuuur114t>Oo:tu7&o%6uuuuuu",
"uuuuuuuuuu.  2:      oruuuuut:.        1uuuu8  X#    &5     7uuuuu",
"uuuuuuuuuu.  X        Xuuuuu3           1uuu8         X     $uuuu,",
"uuuuuuuuuu.    .:71.   6uuuu4   #-1<$   .yuu8    ,9    Ow:  .uuuq ",
"uuuuuuuuuu.   .0uuuw   %uuuu4 %wuuuuu,   1uu8   $uuO   qu0   ruu% ",
"uuuuuuuuuu.   ,uuuuuO  ouuuuteuuuuuuuy.  -uu8   3uu$  .uut   wuw  ",
"uuuuuuuuuu.  .yuuuuu*  .uuuuuuuuuuuuuuO  #uu8   wuu%  +uuy   9u3  ",
"uuuuuuuuuu.  +uuuuuu;   uuuuuuuuuuuy91X  Ouu8   tuu&  @uuu   8u:  ",
"uuuuuuuuuu.  &uuuuuu:   uuuuuuu6;@X      Ouu8   uuu&  #uuu   8u*  ",
"uuuuuuuuuu.  -uuuuuu>   uuuuu0O          Ouu8   uuu&  #uuu   8u#  ",
"uuuuuuuuuu.  -uuuuuu>   uuuu1      o%:O  Ouu8   uuu&  #uuu   8u#  ",
"uuuuuuuuuu.  -uuuuuu>   uuur.   $8yuuu-  Ouu8   uuu&  #uuu   8u=  ",
"uuuuuuuuuu.  -uuuuuu>   uuu2   *uuuuuu$  Ouu8   uuu&  #uuu   8u>  ",
"uuuuuuuuuu.  -uuuuuu>   uuu;   quuuuuu.  Ouu8   uuu&  #uuu   8u3  ",
"uuuuuuuuuu.  -uuuuuu>   uuu&   9uuuuu<   Ouu8   uuu&  #uuu   8ue  ",
"uuuuuuuuuu.  -uuuuuu>   uuu:   -uuuu6    Ouu8   uuu&  #uuu   8uu& ",
"uuuuuuuuuu.  -uuuuuu>   uuu5    *65*     Ouu8   uuu&  #uuu   8uuw ",
"uuuuuuuuuu.  -uuuuuu>   uuuuO            Ouu8   uuu&  #uuu   8uuu,",
"uuuuuuuuuu.  -uuuuuu>   uuuuwX       =-  Ouu8   uuu&  #uuu   8uuuu",
"uuuuuuuuuu,>>7uuuuuu9>>>uuuuuy,#o.#:9u8>>2uuy,>>uuu6>>4uuu2>>euuuu",
"uuuuuuuuuuuuuuuuuuuuuuuuuuuuuuuuuuuuuuuuuuuuuuuuuuuuuuuuuuuuuuuuuu",
"uuuuuuuuuuuuuuuuuuuuuuuuuuuuuuuuuuuuuuuuuuuuuuuuuuuuuuuuuuuuuuuuuu",
"uuuuuuuuuuuuuuuuuuuuuuuuuuuuuuuuuuuuuuuuuuuuuuuuuuuuuuuuuuuuuuuuuu",
"uuuuuuuuuuuuuuuuuuuuuuuuuuuuuuuuuuuuuuuuuuuuuuuuuuuuuuuuuuuuuuuuuu",
"uuuuuuuuuuuuuuuuuuuuuuuuuuuuuuuuuuuuuuuuuuuuuuuuuuuuuuuuuuuuuuuuuu",
"uuuuuuuuuuuuuuuuuuuuuuuuuuuuuuuuuuuuuuuuuuuuuuuuuuuuuuuuuuuuuuuuuu",
"uuuuuuuuuuuuuuuuuuuuuuuuuuuuuuuuuuuuuuuuuuuuuuuuuuuuuuuuuuuuuuuuuu",
"uuuuuuuuuuuuuuuuuuuuuuuuuuuuuuuuuuuuuuuuuuuuuuuuuuuuuuuuuuuuuuuuuu",
"uuuuuuuuuuuuuuuuuuuuuuuuuuuuuuuuuuuuuuuuuuuuuuuuuuuuuuuuuuuuuuuuuu",
"uuuuuuuuuuuuuuuuuuuuuuuuuuuuuuuuuuuuuuuuuuuuuuuuuuuuuuuuuuuuuuuuuu",
"uuuuuuuuuuuuuuuuuuuuuuuuuuuuuuuuuuuuuuuuuuuuuuuuuuuuuuuuuuuuuuuuuu",
"uuuuuuuuuuuuuuuuuuuuuuuuuuuuuuuuuuuuuuuuuuuuuuuuuuuuuuuuuuuuuuuuuu",
"<<<<<<<<<<<<<<<<<<<<<<<<<<<<<<<<<<<<<<<<<<<<<<<<<<<<<<<<<<<<<<<<<<",
"<<<<<<<<<<<<<<<<<<<<<<<<<<<<<<<<<<<<<<<<<<<<<<<<<<<<<<<<<<<<<<<<<<",
"<<<<<<<<<<<<<<<<<<<<<<<<<<<<<<<<<<<<<<<<<<<<<<<<<<<<<<<<<<<<<<<<<<",
"<<<<<<<<<<<<<<<<<<<<<<<<<<<<<<<<<<<<<<<<<<<<<<<<<<<<<<<<<<<<<<<<<<",
"uuuuuuuuuuuuuuuuuuuuuuuuuuuuuuuuuuuuuuuuuuuuuuuuuuuuuuuuuuuuuuuuuu",
"uuuuuuuuuuuuuuuuuuuuuuuuuuuuuuuuuuuuuuuuuuuuuuuuuuuuuuuuuuuuuuuuuu",
"uuuuuuuuuuuuuuuuuuuuuuuuuuuuuuuuuuuuuuuuuuuuuuuuuuuuuuuuuuuuuuuuuu",
"uuuuuuuuuuuuuuuuuuuuuuuuuuuuuuuuuuuuuuuuuuuuuuuuuuuuuuuuuuuuuuuuuu",
"uuuuuuuuuuuuuuuuuuuuuuuuuuuuuuuuuuuuuuuuuuuuuuuuuuuuuuuuuuuuuuuuuu",
"uuuuuuuuuuuuuuuuuuuuuuuuuuuuuuuuuuuuuuuuuuuuuuuuuuuuuuuuuuuuuuuuuu",
"uuuuuuuuuuuuuuuuuuuuuuuuuuuuuuuuuuuuuuuuuuuuuuuuuuuuuuuuuuuuuuuuuu",
"uuuuuuuuuuuuuuuuuuuuuuuuuuuuuuuuuuuuuuuuuuuuuuuuuuuuuuuuuuuuuuuuuu",
"uuuuuuuuuuuuuuuuuuuuuuuuuuuuuuuuuuuuuuuuuuuuuuuuuuuuuuuuuuuuuuuuuu",
"uuuuuuuuuuuuuuuuuuuuuuuuuuuuuuuuuuuuuuuuuuuuuuuuuuuuuuuuuuuuuuuuuu",
"uuuuuuuuuuuuuuuuuuuuuuuuuuuuuuuuuuuuuuuuuuuuuuuuuuuuuuuuuuuuuuuuuu",
"uuuuuuuuuuuuuuuuuuuuuuuuuuuuuuuuuuuuuuuuuuuuuuuuuuuuuuuuuuuuuuuuuu",
"uuuuuuuuuuuuuuuuuuuuuuuuuuuuuuuuuuuuuuuuuuuuuuuuuuuuuuuuuuuuuuuuuu",
"uuuuuuuuuuuuuuuuuuuuuuuuuuuuuuuuuuuuuuuuuuuuuuuuuuuuuuuuuuuuuuuuuu"
};
